<svg id="Layer_1" data-name="Layer 1" xmlns="http://www.w3.org/2000/svg" width="189.9" height="21" viewBox="0 0 189.9 21"><defs><style>.cls-1{fill:#538d4e;}.cls-2{fill:#d7dadc;}.cls-3{fill:#b59f3b;}</style></defs><path class="cls-1" d="M0,26V9.5H12.21v2.78H3.32v3.65h8.27v2.78H3.32v4.48h9.2V26Z" transform="translate(0 -9.5)"/><path class="cls-1" d="M13.92,26V23l8.64-10.68H14.89V9.5H26.94v2.58l-9,11.11h9.37V26Z" transform="translate(0 -9.5)"/><path class="cls-2" d="M38.12,26,34.19,9.5h3.4l2.48,11.31,3-11.31h4L49.92,21,52.45,9.5h3.34L51.79,26H48.27L45,13.65,41.72,26Z" transform="translate(0 -9.5)"/><path class="cls-3" d="M56.32,19.83a6.4,6.4,0,0,1,.78-3,5.28,5.28,0,0,1,2.19-2.25,6.61,6.61,0,0,1,3.17-.77,6,6,0,0,1,4.44,1.75A6.12,6.12,0,0,1,68.63,20a6.11,6.11,0,0,1-1.75,4.48,5.88,5.88,0,0,1-4.39,1.78,6.83,6.83,0,0,1-3.13-.74,5.05,5.05,0,0,1-2.26-2.17A7.23,7.23,0,0,1,56.32,19.83Zm3.24.17a4,4,0,0,0,.84,2.72,2.76,2.76,0,0,0,4.15,0A4,4,0,0,0,65.38,20a3.93,3.93,0,0,0-.83-2.7,2.76,2.76,0,0,0-4.15,0A4,4,0,0,0,59.56,20Z" transform="translate(0 -9.5)"/><path class="cls-2" d="M74.12,26H71V14H73.9v1.69a5,5,0,0,1,1.35-1.58,2.45,2.45,0,0,1,1.36-.38,4.05,4.05,0,0,1,2.08.59l-1,2.75a2.77,2.77,0,0,0-1.48-.51,1.77,1.77,0,0,0-1.12.36,2.56,2.56,0,0,0-.73,1.32,19.3,19.3,0,0,0-.26,4Z" transform="translate(0 -9.5)"/><path class="cls-3" d="M91,26H88.06V24.21a4.7,4.7,0,0,1-1.73,1.52,4.32,4.32,0,0,1-2,.5,4.55,4.55,0,0,1-3.52-1.65A6.74,6.74,0,0,1,79.34,20a6.65,6.65,0,0,1,1.43-4.61,4.62,4.62,0,0,1,3.61-1.58,4.44,4.44,0,0,1,3.45,1.66V9.5H91Zm-8.42-6.22a5.47,5.47,0,0,0,.52,2.76,2.38,2.38,0,0,0,2.14,1.24,2.32,2.32,0,0,0,1.85-.93A4.26,4.26,0,0,0,87.84,20a4.61,4.61,0,0,0-.74-2.95,2.31,2.31,0,0,0-1.89-.91,2.37,2.37,0,0,0-1.88.89A4,4,0,0,0,82.57,19.74Z" transform="translate(0 -9.5)"/><path class="cls-2" d="M94.1,26V9.5h3.16V26Z" transform="translate(0 -9.5)"/><path class="cls-2" d="M107.4,22.17l3.14.53a5.13,5.13,0,0,1-1.91,2.63,5.68,5.68,0,0,1-3.28.9,5.32,5.32,0,0,1-4.6-2,6.82,6.82,0,0,1-1.18-4.11,6.59,6.59,0,0,1,1.55-4.64A5.1,5.1,0,0,1,105,13.77a5.31,5.31,0,0,1,4.2,1.75c1,1.18,1.52,3,1.47,5.39H102.8a3.2,3.2,0,0,0,.77,2.18,2.38,2.38,0,0,0,1.82.78,1.9,1.9,0,0,0,1.24-.4A2.46,2.46,0,0,0,107.4,22.17Zm.18-3.19a3,3,0,0,0-.71-2.08,2.17,2.17,0,0,0-1.64-.72,2.2,2.2,0,0,0-1.71.75,2.93,2.93,0,0,0-.66,2.05Z" transform="translate(0 -9.5)"/><path class="cls-2" d="M119.71,26V9.5H123V16h6.51V9.5h3.33V26h-3.33v-7.2H123V26Z" transform="translate(0 -9.5)"/><path class="cls-3" d="M143.19,22.17l3.14.53a5.13,5.13,0,0,1-1.91,2.63,5.64,5.64,0,0,1-3.28.9,5.32,5.32,0,0,1-4.6-2,6.82,6.82,0,0,1-1.18-4.11,6.59,6.59,0,0,1,1.55-4.64,5.1,5.1,0,0,1,3.92-1.68,5.31,5.31,0,0,1,4.2,1.75c1,1.18,1.52,3,1.47,5.39h-7.9a3.14,3.14,0,0,0,.76,2.18,2.39,2.39,0,0,0,1.82.78,1.9,1.9,0,0,0,1.24-.4A2.46,2.46,0,0,0,143.19,22.17Zm.18-3.19a3,3,0,0,0-.71-2.08,2.15,2.15,0,0,0-1.64-.72,2.2,2.2,0,0,0-1.71.75,3,3,0,0,0-.66,2.05Z" transform="translate(0 -9.5)"/><path class="cls-2" d="M149.07,26V9.5h3.16V26Z" transform="translate(0 -9.5)"/><path class="cls-2" d="M155.37,14h2.95v1.75a4.27,4.27,0,0,1,1.55-1.46,4.19,4.19,0,0,1,2.16-.56,4.54,4.54,0,0,1,3.53,1.63A6.54,6.54,0,0,1,167,19.93a6.84,6.84,0,0,1-1.46,4.65A4.55,4.55,0,0,1,162,26.23a4,4,0,0,1-1.79-.39,5.87,5.87,0,0,1-1.69-1.35v6h-3.16Zm3.13,5.76a4.6,4.6,0,0,0,.79,3,2.44,2.44,0,0,0,2,1,2.31,2.31,0,0,0,1.83-.88A4.58,4.58,0,0,0,163.8,20a4.26,4.26,0,0,0-.76-2.79,2.31,2.31,0,0,0-1.86-.91,2.44,2.44,0,0,0-1.92.89A4,4,0,0,0,158.5,19.8Z" transform="translate(0 -9.5)"/><path class="cls-3" d="M176.42,22.17l3.14.53a5.13,5.13,0,0,1-1.91,2.63,5.63,5.63,0,0,1-3.27.9,5.33,5.33,0,0,1-4.61-2,6.82,6.82,0,0,1-1.18-4.11,6.59,6.59,0,0,1,1.55-4.64,5.1,5.1,0,0,1,3.92-1.68,5.29,5.29,0,0,1,4.2,1.75c1,1.18,1.52,3,1.47,5.39h-7.9a3.14,3.14,0,0,0,.76,2.18,2.39,2.39,0,0,0,1.82.78,2,2,0,0,0,1.25-.4A2.51,2.51,0,0,0,176.42,22.17ZM176.6,19a3,3,0,0,0-.71-2.08,2.15,2.15,0,0,0-1.64-.72,2.2,2.2,0,0,0-1.71.75,3,3,0,0,0-.66,2.05Z" transform="translate(0 -9.5)"/><path class="cls-2" d="M185.33,26h-3.16V14h2.93v1.69a5,5,0,0,1,1.35-1.58,2.46,2.46,0,0,1,1.37-.38,4.08,4.08,0,0,1,2.08.59l-1,2.75a2.8,2.8,0,0,0-1.48-.51,1.8,1.8,0,0,0-1.13.36,2.56,2.56,0,0,0-.72,1.32,18.6,18.6,0,0,0-.26,4Z" transform="translate(0 -9.5)"/></svg>