<svg id="Layer_1" data-name="Layer 1" xmlns="http://www.w3.org/2000/svg" width="80" height="36" viewBox="0 0 80 36"><defs><style>.cls-1{fill:#121213;}.cls-2{fill:#538d4e;}.cls-3{fill:#fff;}.cls-4{fill:#b59f3b;}</style></defs><rect class="cls-1" width="80" height="36"/><path class="cls-2" d="M0,26.59V9.41H12.74v2.91H3.47v3.8h8.62V19H3.47V23.7h9.6v2.89Z"/><path class="cls-2" d="M14.52,26.59V23.46l9-11.14h-8V9.41H28.11v2.7L18.7,23.7h9.78v2.89Z"/><path class="cls-3" d="M39.77,26.59,35.67,9.41h3.55l2.59,11.8L45,9.41h4.13l3,12,2.64-12h3.49L54.05,26.59H50.37L47,13.75,43.54,26.59Z"/><path class="cls-4" d="M60,26.59V9.41h3.47v6.76h6.8V9.41h3.46V26.59H70.27V19.08h-6.8v7.51Z"/></svg>